<mxfile host="app.diagrams.net" modified="2023-03-01T12:43:45.529Z" agent="5.0 (Windows NT 10.0; Win64; x64) AppleWebKit/537.36 (KHTML, like Gecko) Chrome/108.0.0.0 YaBrowser/23.1.3.949 Yowser/2.5 Safari/537.36" version="20.7.4" etag="Y_dSnkMuJapEMnHBmpD8" type="github">
  <diagram id="y0tFMvYvx9RLQDN37_Di" name="Страница 1">
    <mxGraphModel dx="890" dy="376" grid="1" gridSize="10" guides="1" tooltips="1" connect="1" arrows="1" fold="1" page="1" pageScale="1" pageWidth="827" pageHeight="1169" math="0" shadow="0">
      <root>
        <mxCell id="0" />
        <mxCell id="1" parent="0" />
        <mxCell id="m4EDQcoOkhVKxSVFaHCx-1" value="Умная колонка" style="ellipse;whiteSpace=wrap;html=1;" vertex="1" parent="1">
          <mxGeometry x="350" y="240" width="120" height="80" as="geometry" />
        </mxCell>
        <mxCell id="m4EDQcoOkhVKxSVFaHCx-2" value="Студент" style="shape=umlActor;verticalLabelPosition=bottom;verticalAlign=top;html=1;outlineConnect=0;" vertex="1" parent="1">
          <mxGeometry x="320" y="70" width="30" height="60" as="geometry" />
        </mxCell>
        <mxCell id="m4EDQcoOkhVKxSVFaHCx-3" value="" style="endArrow=classic;html=1;rounded=0;" edge="1" parent="1" source="m4EDQcoOkhVKxSVFaHCx-2" target="m4EDQcoOkhVKxSVFaHCx-1">
          <mxGeometry width="50" height="50" relative="1" as="geometry">
            <mxPoint x="370" y="240" as="sourcePoint" />
            <mxPoint x="420" y="190" as="targetPoint" />
          </mxGeometry>
        </mxCell>
        <mxCell id="m4EDQcoOkhVKxSVFaHCx-4" value="Хочу расписание группы" style="edgeLabel;html=1;align=center;verticalAlign=middle;resizable=0;points=[];rotation=60;" vertex="1" connectable="0" parent="m4EDQcoOkhVKxSVFaHCx-3">
          <mxGeometry x="0.4212" relative="1" as="geometry">
            <mxPoint x="6" y="-35" as="offset" />
          </mxGeometry>
        </mxCell>
        <mxCell id="m4EDQcoOkhVKxSVFaHCx-5" value="" style="endArrow=classic;html=1;rounded=0;exitX=0;exitY=0;exitDx=0;exitDy=0;entryX=0;entryY=1;entryDx=0;entryDy=0;entryPerimeter=0;" edge="1" parent="1" source="m4EDQcoOkhVKxSVFaHCx-1" target="m4EDQcoOkhVKxSVFaHCx-2">
          <mxGeometry width="50" height="50" relative="1" as="geometry">
            <mxPoint x="370" y="240" as="sourcePoint" />
            <mxPoint x="420" y="190" as="targetPoint" />
          </mxGeometry>
        </mxCell>
        <mxCell id="m4EDQcoOkhVKxSVFaHCx-6" value="Расписание группы такое-то" style="edgeLabel;html=1;align=center;verticalAlign=middle;resizable=0;points=[];rotation=65;" vertex="1" connectable="0" parent="m4EDQcoOkhVKxSVFaHCx-5">
          <mxGeometry x="-0.3054" relative="1" as="geometry">
            <mxPoint x="-25" y="-26" as="offset" />
          </mxGeometry>
        </mxCell>
      </root>
    </mxGraphModel>
  </diagram>
</mxfile>
